# xmcd CD database file generated by Grip 3.1.4
# 
# Track frame offsets:
#       150
#       12430
#       22340
#       29545
#       41830
#       53320
#       62947
#       74742
#       84645
#       95715
#       107242
#       120355
#       132895
#       142370
#       149617
#       161000
# 
# Disc length: 2269 seconds
# 
# Revision: 2
# Processed by: cddbd v1.5.1PL0 Copyright (c) Steve Scherf et al.
# Submitted via: Grip 3.1.4
# 
DISCID=f908db10
DTITLE=Unknown DiscVarious Artists - 16 Greatest Original Blue Grass Hits
DYEAR=1900
DGENRE=Alternative
TTITLE0=Flatt and Scruggs - Doing My Time
TTITLE1=Stanley Bros. - Love Me Darlin Just Tonight
TTITLE2=Buzz Busby - Talking Banjo
TTITLE3=Jimmy Martin and Bob Osborne - She's Just a Cute Thing
TTITLE4=Carl Story - Family Reunion
TTITLE5=Bill Clifton - Walking in My Sleep
TTITLE6=Hylo Brown - Footprints in the Snow
TTITLE7=New Grass Revival - Great Balls of Fire
TTITLE8=Reno and Smiley - Don't Let Your Sweet Love Die
TTITLE9=Stonemans - Orange Blossom Breakdown
TTITLE10=Mac Wiseman - 'Tis Sweet To Be Remembered
TTITLE11=Country Gentlemen - Hey Little Girl
TTITLE12=Moore and Napier - Truck Driver's Queen
TTITLE13=Jim Eanes - Round Town Gals
TTITLE14=Jim and Jesse - Hard Hearted
TTITLE15=Charlie Monroe - Penitentiary Blues
EXTD=
EXTT0=
EXTT1=
EXTT2=
EXTT3=
EXTT4=
EXTT5=
EXTT6=
EXTT7=
EXTT8=
EXTT9=
EXTT10=
EXTT11=
EXTT12=
EXTT13=
EXTT14=
EXTT15=
PLAYORDER=
